<?xml version="1.0" encoding="utf-8"?>
<!-- Generator: Adobe Illustrator 28.0.0, SVG Export Plug-In . SVG Version: 6.00 Build 0)  -->
<svg version="1.1" id="Layer_1" xmlns="http://www.w3.org/2000/svg" xmlns:xlink="http://www.w3.org/1999/xlink" x="0px" y="0px"
	 viewBox="0 0 911.5 412.9" style="enable-background:new 0 0 911.5 412.9;" xml:space="preserve">
<style type="text/css">
	.st0{fill:#F4875E;}
	.st1{fill:#ED396F;}
	.st2{fill:#5D489C;}
	.st3{fill:#494748;}
	.st4{fill:none;}
	.st5{font-family:'Calibre-Bold';}
	.st6{font-size:25px;}
</style>
<g>
	<g>
		
			<rect x="131.8" y="211.6" transform="matrix(0.7071 -0.7071 0.7071 0.7071 -113.5443 161.2157)" class="st0" width="12.1" height="12.1"/>
		
			<rect x="149" y="194.4" transform="matrix(0.7071 -0.7071 0.7071 0.7071 -96.3273 168.3337)" class="st0" width="12.1" height="12.1"/>
		<polygon class="st0" points="180.8,183.3 189.4,174.7 198,166.1 206.6,157.5 215.2,149 206.6,140.4 198,149 189.4,157.5 
			180.8,166.1 172.2,174.7 163.7,183.3 172.2,191.9 		"/>
		
			<rect x="149" y="228.7" transform="matrix(0.7071 -0.7071 0.7071 0.7071 -120.5744 178.3619)" class="st1" width="12.1" height="12.1"/>
		<polygon class="st1" points="198,183.3 189.4,191.9 180.8,200.5 172.2,209.1 163.7,217.6 172.2,226.2 180.8,217.6 189.4,209.1 
			198,200.5 206.6,191.9 215.2,183.3 206.6,174.7 		"/>
		
			<rect x="217.7" y="160.1" transform="matrix(0.7071 -0.7071 0.7071 0.7071 -51.953 206.8876)" class="st0" width="12.1" height="12.1"/>
		<polygon class="st2" points="206.6,209.1 198,217.6 189.4,226.2 180.8,234.8 172.2,243.4 163.7,252 172.2,260.6 180.8,252 
			189.4,243.4 198,234.8 206.6,226.2 215.2,217.6 		"/>
		
			<rect x="217.7" y="194.4" transform="matrix(0.7071 -0.7071 0.7071 0.7071 -76.2001 216.9157)" class="st1" width="12.1" height="12.1"/>
		
			<rect x="234.8" y="177.3" transform="matrix(0.7071 -0.7071 0.7071 0.7071 -59.0832 224.0166)" class="st0" width="12.1" height="12.1"/>
		
			<rect x="217.7" y="228.7" transform="matrix(0.7071 -0.7071 0.7071 0.7071 -100.4473 226.944)" class="st2" width="12.1" height="12.1"/>
		
			<rect x="234.8" y="211.6" transform="matrix(0.7071 -0.7071 0.7071 0.7071 -83.3889 234.0449)" class="st1" width="12.1" height="12.1"/>
		
			<rect x="252" y="194.4" transform="matrix(0.7071 -0.7071 0.7071 0.7071 -66.1678 241.1646)" class="st0" width="12.1" height="12.1"/>
		
			<rect x="234.8" y="246" transform="matrix(0.7071 -0.7071 0.7071 0.7071 -107.6611 244.1455)" class="st2" width="12.1" height="12.1"/>
		
			<rect x="252" y="228.7" transform="matrix(0.7071 -0.7071 0.7071 0.7071 -90.4149 251.1928)" class="st1" width="12.1" height="12.1"/>
		
			<rect x="269.2" y="211.6" transform="matrix(0.7071 -0.7071 0.7071 0.7071 -73.2858 258.3816)" class="st0" width="12.1" height="12.1"/>
	</g>
	<g>
		<path class="st3" d="M313.1,140.4h4.5c0.7,0,1,0.4,1,1V168c0,0.6-0.4,1-1,1h-4.5c-0.6,0-1-0.4-1-1v-26.6
			C312,140.7,312.4,140.4,313.1,140.4z"/>
		<path class="st3" d="M340.5,140.4h4.5c0.6,0,1,0.4,1,1V168c0,0.6-0.4,1-1,1h-3.1c-0.5,0-1-0.2-1.3-0.7l-9.8-15.3v15
			c0,0.7-0.4,1-1,1h-4.5c-0.6,0-1-0.4-1-1v-26.6c0-0.6,0.4-1,1-1h3.1c0.5,0,1,0.2,1.3,0.7l9.8,15.3v-15
			C339.5,140.7,339.9,140.4,340.5,140.4L340.5,140.4z"/>
		<path class="st3" d="M368,140.4h4.5c0.6,0,1,0.4,1,1V168c0,0.6-0.4,1-1,1h-3.1c-0.5,0-1-0.2-1.3-0.7l-9.8-15.3v15c0,0.7-0.4,1-1,1
			h-4.5c-0.6,0-1-0.4-1-1v-26.6c0-0.6,0.4-1,1-1h3.1c0.5,0,1,0.2,1.3,0.7l9.8,15.3v-15C366.9,140.7,367.3,140.4,368,140.4L368,140.4
			z"/>
		<path class="st3" d="M378.3,155c0-8.3,6.5-14.6,14.6-14.6s14.6,6.4,14.6,14.6c0,8.3-6.5,14.6-14.6,14.6S378.3,163.3,378.3,155
			L378.3,155z M401.1,155c0-5-3.6-8.4-8.2-8.4s-8.2,3.3-8.2,8.4c0,5,3.6,8.4,8.2,8.4S401.1,160,401.1,155z"/>
		<path class="st3" d="M417.3,168.2l-8.3-26.7c-0.2-0.7,0.1-1.2,0.9-1.2h5c0.6,0,1,0.2,1.1,0.9l5.7,20.2l5.7-20.2
			c0.2-0.6,0.6-0.9,1.1-0.9h5c0.7,0,1.1,0.4,0.9,1.1l-8.3,26.7c-0.2,0.6-0.6,0.9-1.1,0.9h-6.5C417.9,169,417.5,168.8,417.3,168.2
			L417.3,168.2z"/>
		<path class="st3" d="M459.8,169h-5c-0.6,0-1-0.2-1.1-0.9l-1.1-3.6h-10l-1.1,3.6c-0.2,0.6-0.6,0.9-1.1,0.9h-5
			c-0.7,0-1.1-0.4-0.9-1.2l8.7-26.7c0.2-0.6,0.6-0.9,1.2-0.9h6.5c0.6,0,1,0.3,1.2,0.9l8.7,26.7C460.9,168.6,460.5,169,459.8,169
			L459.8,169z M450.7,158.4l-3.2-10.8l-3.2,10.8H450.7L450.7,158.4z"/>
		<path class="st3" d="M479.9,141.4v4.3c0,0.6-0.4,1-1,1h-5.5V168c0,0.7-0.4,1-1,1h-4.5c-0.6,0-1-0.4-1-1v-21.3h-5.5
			c-0.6,0-1-0.4-1-1v-4.3c0-0.6,0.4-1,1-1H479C479.5,140.4,479.9,140.7,479.9,141.4z"/>
		<path class="st3" d="M484.6,140.4h4.5c0.7,0,1,0.4,1,1V168c0,0.6-0.4,1-1,1h-4.5c-0.6,0-1-0.4-1-1v-26.6
			C483.6,140.7,484,140.4,484.6,140.4z"/>
		<path class="st3" d="M494.9,155c0-8.3,6.5-14.6,14.6-14.6c8.1,0,14.6,6.4,14.6,14.6c0,8.3-6.5,14.6-14.6,14.6
			S494.9,163.3,494.9,155z M517.8,155c0-5-3.6-8.4-8.2-8.4s-8.2,3.3-8.2,8.4c0,5,3.6,8.4,8.2,8.4C514.2,163.4,517.8,160,517.8,155z"
			/>
		<path class="st3" d="M545.2,140.4h4.5c0.6,0,1,0.4,1,1V168c0,0.6-0.4,1-1,1h-3.1c-0.5,0-1-0.2-1.3-0.7l-9.8-15.3v15
			c0,0.7-0.4,1-1,1H530c-0.6,0-1-0.4-1-1v-26.6c0-0.6,0.4-1,1-1h3.1c0.5,0,1,0.2,1.3,0.7l9.8,15.3v-15
			C544.1,140.7,544.5,140.4,545.2,140.4L545.2,140.4z"/>
		<path class="st3" d="M590.8,169h-5c-0.6,0-1-0.2-1.2-0.9l-1.1-3.6h-10l-1.1,3.6c-0.2,0.6-0.6,0.9-1.1,0.9h-5
			c-0.7,0-1.1-0.4-0.9-1.2l8.7-26.7c0.2-0.6,0.6-0.9,1.2-0.9h6.5c0.6,0,1,0.3,1.2,0.9l8.7,26.7C591.9,168.6,591.5,169,590.8,169
			L590.8,169z M581.7,158.4l-3.2-10.8l-3.2,10.8H581.7L581.7,158.4z"/>
		<path class="st3" d="M611.5,140.4h4.5c0.7,0,1,0.4,1,1V168c0,0.6-0.4,1-1,1h-3c-0.5,0-1-0.2-1.3-0.7l-9.8-15.3v15c0,0.7-0.4,1-1,1
			h-4.5c-0.7,0-1-0.4-1-1v-26.6c0-0.6,0.4-1,1-1h3.1c0.5,0,1,0.2,1.3,0.7l9.8,15.3v-15C610.5,140.7,610.9,140.4,611.5,140.4
			L611.5,140.4z"/>
		<path class="st3" d="M649,154.7c0,8.1-6,14.3-13.9,14.3h-11.3c-0.7,0-1-0.4-1-1v-26.6c0-0.6,0.4-1,1-1h11.3
			C643,140.4,649,146.6,649,154.7z M642.7,154.7c0-4.9-3.1-8-7.6-8h-5.7v16.1h5.7C639.6,162.7,642.7,159.6,642.7,154.7L642.7,154.7z
			"/>
		<path class="st3" d="M329.2,209.2v4.3c0,0.6-0.4,1-1,1h-15.1c-0.6,0-1-0.4-1-1v-26.6c0-0.6,0.4-1,1-1H328c0.6,0,1,0.4,1,1v4.3
			c0,0.6-0.4,1-1,1h-9.4v4.8h8.4c0.7,0,1,0.4,1,1v4.1c0,0.7-0.4,1-1,1h-8.4v5.1h9.6C328.9,208.2,329.2,208.6,329.2,209.2
			L329.2,209.2z"/>
		<path class="st3" d="M349.9,185.8h4.5c0.6,0,1,0.4,1,1v26.6c0,0.7-0.4,1-1,1h-3.1c-0.5,0-1-0.2-1.3-0.7l-9.8-15.3v14.9
			c0,0.6-0.4,1-1,1h-4.5c-0.6,0-1-0.4-1-1v-26.6c0-0.6,0.4-1,1-1h3.1c0.5,0,1,0.2,1.3,0.7l9.8,15.3v-14.9
			C348.9,186.2,349.3,185.9,349.9,185.8L349.9,185.8z"/>
		<path class="st3" d="M378.8,186.9v4.3c0,0.7-0.4,1-1,1h-5.5v21.3c0,0.7-0.4,1-1,1h-4.5c-0.6,0-1-0.4-1-1v-21.3h-5.5
			c-0.6,0-1-0.4-1-1v-4.3c0-0.7,0.4-1,1-1h17.6C378.4,185.8,378.8,186.2,378.8,186.9z"/>
		<path class="st3" d="M405.7,213.2c0.5,0.7,0.2,1.3-0.6,1.3h-5.2c-0.5,0-0.9-0.2-1.3-0.6l-7-8.8H389v8.4c0,0.7-0.4,1-1,1h-4.5
			c-0.6,0-1-0.4-1-1v-26.6c0-0.7,0.4-1,1-1h10c5.5,0,9.8,4.4,9.8,9.8c0,3.4-2,6.6-5.1,8.2L405.7,213.2L405.7,213.2L405.7,213.2z
			 M389,199.4h4.5c1.8,0,3.3-1.6,3.3-3.7c0-2.1-1.5-3.7-3.3-3.7H389V199.4L389,199.4z"/>
		<path class="st3" d="M426.3,209.2v4.3c0,0.6-0.4,1-1,1h-15.1c-0.6,0-1-0.4-1-1v-26.6c0-0.6,0.4-1,1-1h15c0.6,0,1,0.4,1,1v4.3
			c0,0.6-0.4,1-1,1h-9.4v4.8h8.4c0.7,0,1,0.4,1,1v4.1c0,0.7-0.4,1-1,1h-8.4v5.1h9.6C426,208.2,426.3,208.6,426.3,209.2L426.3,209.2z
			"/>
		<path class="st3" d="M451.7,195.7c0,5.4-4.4,9.8-10,9.8h-4.3v8c0,0.7-0.4,1-1,1h-4.5c-0.6,0-1-0.4-1-1v-26.6c0-0.7,0.4-1,1-1h9.8
			C447.3,185.9,451.7,190.2,451.7,195.7L451.7,195.7z M445.2,195.7c0-2.1-1.5-3.7-3.5-3.7h-4.3v7.4h4.3
			C443.7,199.4,445.2,197.8,445.2,195.7L445.2,195.7z"/>
		<path class="st3" d="M479,213.2c0.5,0.7,0.2,1.3-0.6,1.3h-5.2c-0.5,0-0.9-0.2-1.3-0.6l-7-8.8h-2.5v8.4c0,0.7-0.4,1-1,1h-4.5
			c-0.6,0-1-0.4-1-1v-26.6c0-0.7,0.4-1,1-1h10c5.5,0,9.8,4.4,9.8,9.8c0,3.4-2,6.6-5.1,8.2L479,213.2L479,213.2L479,213.2z
			 M462.4,199.4h4.5c1.8,0,3.3-1.6,3.3-3.7c0-2.1-1.5-3.7-3.3-3.7h-4.5V199.4L462.4,199.4z"/>
		<path class="st3" d="M499.6,209.2v4.3c0,0.6-0.4,1-1,1h-15.1c-0.6,0-1-0.4-1-1v-26.6c0-0.6,0.4-1,1-1h15c0.6,0,1,0.4,1,1v4.3
			c0,0.6-0.4,1-1,1H489v4.8h8.4c0.7,0,1,0.4,1,1v4.1c0,0.7-0.4,1-1,1H489v5.1h9.6C499.3,208.2,499.6,208.6,499.6,209.2L499.6,209.2z
			"/>
		<path class="st3" d="M520.3,185.8h4.5c0.7,0,1,0.4,1,1v26.6c0,0.7-0.4,1-1,1h-3.1c-0.5,0-1-0.2-1.3-0.7l-9.8-15.3v14.9
			c0,0.6-0.4,1-1,1h-4.5c-0.6,0-1-0.4-1-1v-26.6c0-0.6,0.4-1,1-1h3.1c0.5,0,1,0.2,1.3,0.7l9.8,15.3v-14.9
			C519.3,186.2,519.7,185.9,520.3,185.8L520.3,185.8z"/>
		<path class="st3" d="M548.8,209.2v4.3c0,0.6-0.4,1-1,1h-15.1c-0.7,0-1-0.4-1-1v-26.6c0-0.6,0.4-1,1-1h15c0.6,0,1,0.4,1,1v4.3
			c0,0.6-0.4,1-1,1h-9.4v4.8h8.4c0.7,0,1,0.4,1,1v4.1c0,0.7-0.4,1-1,1h-8.4v5.1h9.6C548.4,208.2,548.8,208.6,548.8,209.2
			L548.8,209.2z"/>
		<path class="st3" d="M552.9,205.7v-18.8c0-0.6,0.4-1,1-1h4.5c0.7,0,1,0.4,1,1v18.2c0,2.2,1,3.6,4.1,3.6s4.1-1.4,4.1-3.6v-18.2
			c0-0.6,0.4-1,1-1h4.5c0.7,0,1,0.4,1,1v18.8c0,6.1-4.8,9.4-10.7,9.4C557.6,215.1,552.9,211.8,552.9,205.7L552.9,205.7z"/>
		<path class="st3" d="M602.7,213.2c0.5,0.7,0.2,1.3-0.6,1.3h-5.2c-0.5,0-0.9-0.2-1.3-0.6l-7-8.8h-2.5v8.4c0,0.7-0.4,1-1,1h-4.5
			c-0.6,0-1-0.4-1-1v-26.6c0-0.7,0.4-1,1-1h10c5.5,0,9.8,4.4,9.8,9.8c0,3.4-2,6.6-5.1,8.2L602.7,213.2L602.7,213.2L602.7,213.2z
			 M586.1,199.4h4.5c1.8,0,3.3-1.6,3.3-3.7c0-2.1-1.5-3.7-3.3-3.7h-4.5V199.4L586.1,199.4z"/>
		<path class="st3" d="M604.1,206.7c0-0.7,0.4-1,1-1h4.4c0.6,0,0.9,0.3,1,1c0.3,1.4,1.5,2.2,3.9,2.2c2.6,0,3.5-1,3.5-2.2
			c0-1.6-2-2.4-4.5-3.2c-4-1.4-9-3-9-9.2c0-5.6,4.6-8.4,9.4-8.4c4.8,0,9.2,2.5,9.7,8.4c0,0.7-0.4,1-1,1h-4.4c-0.6,0-0.9-0.3-1-1
			c-0.3-1.5-1.4-2.2-3.2-2.2c-2,0-2.9,1-2.9,2.2c0,1.7,1.6,2.5,4,3.3c4,1.4,9.5,2.8,9.5,9c0,5.6-4.5,8.4-9.9,8.4
			S604.6,212.6,604.1,206.7L604.1,206.7z"/>
		<path class="st3" d="M650,186.9v26.6c0,0.7-0.4,1-1,1h-4.5c-0.7,0-1-0.4-1-1v-10.6h-8.2v10.6c0,0.7-0.4,1-1,1h-4.5
			c-0.7,0-1-0.4-1-1v-26.6c0-0.7,0.4-1,1-1h4.5c0.7,0,1,0.4,1,1v9.8h8.2v-9.8c0-0.7,0.4-1,1-1h4.5C649.6,185.8,650,186.2,650,186.9z
			"/>
		<path class="st3" d="M656.7,185.8h4.5c0.7,0,1,0.4,1,1v26.6c0,0.7-0.4,1-1,1h-4.5c-0.7,0-1-0.4-1-1v-26.6
			C655.7,186.2,656.1,185.8,656.7,185.8z"/>
		<path class="st3" d="M688.9,195.7c0,5.4-4.4,9.8-10,9.8h-4.3v8c0,0.7-0.4,1-1,1H669c-0.7,0-1-0.4-1-1v-26.6c0-0.7,0.4-1,1-1h9.8
			C684.5,185.9,688.9,190.2,688.9,195.7L688.9,195.7z M682.3,195.7c0-2.1-1.5-3.7-3.5-3.7h-4.3v7.4h4.3
			C680.9,199.4,682.3,197.8,682.3,195.7L682.3,195.7z"/>
		<path class="st3" d="M338.3,245.6c0,8.1-6,14.3-13.9,14.3h-11.3c-0.6,0-1-0.4-1-1v-26.6c0-0.7,0.4-1,1-1h11.3
			C332.2,231.3,338.3,237.5,338.3,245.6z M331.9,245.6c0-4.9-3.1-8-7.6-8h-5.7v16h5.7C328.8,253.7,331.9,250.6,331.9,245.6
			L331.9,245.6z"/>
		<path class="st3" d="M360,254.7v4.3c0,0.6-0.4,1-1,1h-15.1c-0.6,0-1-0.4-1-1v-26.6c0-0.6,0.4-1,1-1h14.9c0.6,0,1,0.4,1,1v4.3
			c0,0.6-0.4,1-1,1h-9.4v4.8h8.4c0.7,0,1,0.4,1,1v4.1c0,0.6-0.4,1-1,1h-8.4v5.1h9.6C359.6,253.7,360,254,360,254.7L360,254.7z"/>
		<path class="st3" d="M370.7,259.1l-8.3-26.7c-0.2-0.7,0.1-1.1,0.9-1.1h5c0.6,0,1,0.2,1.1,0.9l5.7,20.2l5.7-20.2
			c0.2-0.6,0.6-0.9,1.1-0.9h5c0.7,0,1.1,0.4,0.9,1.2l-8.3,26.7c-0.2,0.6-0.6,0.9-1.1,0.9h-6.5C371.3,260,370.9,259.7,370.7,259.1
			L370.7,259.1z"/>
		<path class="st3" d="M408.7,254.7v4.3c0,0.6-0.4,1-1,1h-15.1c-0.6,0-1-0.4-1-1v-26.6c0-0.6,0.4-1,1-1h15c0.6,0,1,0.4,1,1v4.3
			c0,0.6-0.4,1-1,1h-9.4v4.8h8.4c0.7,0,1,0.4,1,1v4.1c0,0.6-0.4,1-1,1h-8.4v5.1h9.6C408.3,253.7,408.7,254,408.7,254.7L408.7,254.7z
			"/>
		<path class="st3" d="M429.6,254.7v4.3c0,0.6-0.4,1-1,1h-14.3c-0.6,0-1-0.4-1-1v-26.6c0-0.6,0.4-1,1-1h4.5c0.7,0,1,0.4,1,1v21.3
			h8.8C429.2,253.7,429.6,254.1,429.6,254.7z"/>
		<path class="st3" d="M431.1,245.9c0-8.3,6.5-14.6,14.6-14.6s14.6,6.3,14.6,14.6s-6.5,14.6-14.6,14.6S431.1,254.2,431.1,245.9z
			 M453.9,245.9c0-5-3.6-8.3-8.2-8.3s-8.2,3.3-8.2,8.3s3.6,8.4,8.2,8.4S453.9,251,453.9,245.9z"/>
		<path class="st3" d="M486,241.1c0,5.4-4.4,9.8-10,9.8h-4.3v8c0,0.6-0.4,1-1,1h-4.5c-0.6,0-1-0.4-1-1v-26.6c0-0.7,0.4-1,1-1h9.8
			C481.7,231.3,486.1,235.7,486,241.1L486,241.1z M479.5,241.1c0-2.1-1.5-3.7-3.5-3.7h-4.3v7.4h4.3
			C478,244.8,479.5,243.2,479.5,241.1L479.5,241.1z"/>
		<path class="st3" d="M518.8,232.3V259c0,0.6-0.4,1-1,1h-4.5c-0.7,0-1-0.4-1-1v-16.6l-5.2,12.3c-0.2,0.5-0.6,0.8-1.2,0.8h-2.8
			c-0.6,0-1-0.2-1.2-0.8l-5.2-12.3V259c0,0.6-0.4,1-1,1h-4.5c-0.6,0-1-0.4-1-1v-26.6c0-0.7,0.4-1,1-1h5.5c0.6,0,1,0.2,1.2,0.8
			l6.6,15.8l6.6-15.8c0.2-0.5,0.6-0.8,1.2-0.8h5.5C518.5,231.3,518.8,231.7,518.8,232.3L518.8,232.3z"/>
		<path class="st3" d="M541.8,254.7v4.3c0,0.6-0.4,1-1,1h-15.2c-0.6,0-1-0.4-1-1v-26.6c0-0.6,0.4-1,1-1h15c0.7,0,1,0.4,1,1v4.3
			c0,0.6-0.4,1-1,1h-9.4v4.8h8.4c0.7,0,1,0.4,1,1v4.1c0,0.6-0.4,1-1,1h-8.4v5.1h9.6C541.4,253.7,541.8,254,541.8,254.7L541.8,254.7z
			"/>
		<path class="st3" d="M562.4,231.3h4.5c0.7,0,1,0.4,1,1V259c0,0.6-0.4,1-1,1h-3.1c-0.5,0-1-0.2-1.3-0.7l-9.8-15.3v14.9
			c0,0.6-0.4,1-1,1h-4.5c-0.7,0-1-0.4-1-1v-26.6c0-0.7,0.4-1,1-1h3.1c0.5,0,1,0.2,1.3,0.7l9.8,15.3v-14.9
			C561.4,231.7,561.8,231.3,562.4,231.3L562.4,231.3z"/>
		<path class="st3" d="M591.3,232.3v4.3c0,0.7-0.4,1-1,1h-5.5V259c0,0.6-0.4,1-1,1h-4.5c-0.7,0-1-0.4-1-1v-21.3h-5.5
			c-0.7,0-1-0.4-1-1v-4.3c0-0.6,0.4-1,1-1h17.6C590.9,231.3,591.3,231.7,591.3,232.3L591.3,232.3z"/>
		<path class="st3" d="M605.1,245.9c0-8.3,6.2-14.6,14.6-14.6c6.4,0,11.9,4,13.5,9.9c0.2,0.7-0.2,1.1-0.9,1.1h-4.7
			c-0.6,0-0.9-0.3-1.1-0.8c-1.1-2.4-3.7-3.9-6.8-3.9c-5,0-8.2,3.3-8.2,8.3s3.2,8.4,8.2,8.4c3,0,5.7-1.5,6.8-3.9
			c0.2-0.5,0.6-0.8,1.1-0.8h4.7c0.7,0,1,0.4,0.9,1c-1.6,5.9-7.1,10-13.5,10C611.3,260.5,605.1,254.2,605.1,245.9L605.1,245.9z"/>
		<path class="st3" d="M654.7,254.7v4.3c0,0.6-0.4,1-1,1h-15.1c-0.7,0-1-0.4-1-1v-26.6c0-0.6,0.4-1,1-1h14.9c0.7,0,1,0.4,1,1v4.3
			c0,0.6-0.4,1-1,1H644v4.8h8.4c0.7,0,1,0.4,1,1v4.1c0,0.6-0.4,1-1,1H644v5.1h9.6C654.3,253.7,654.7,254,654.7,254.7L654.7,254.7z"
			/>
		<path class="st3" d="M675.4,231.3h4.5c0.7,0,1,0.4,1,1V259c0,0.6-0.4,1-1,1h-3.1c-0.5,0-1-0.2-1.3-0.7l-9.8-15.3v14.9
			c0,0.6-0.4,1-1,1h-4.5c-0.7,0-1-0.4-1-1v-26.6c0-0.7,0.4-1,1-1h3.1c0.5,0,1,0.2,1.3,0.7l9.8,15.3v-14.9
			C674.4,231.7,674.7,231.3,675.4,231.3L675.4,231.3z"/>
		<path class="st3" d="M704.2,232.3v4.3c0,0.7-0.4,1-1,1h-5.5V259c0,0.6-0.4,1-1,1h-4.5c-0.7,0-1-0.4-1-1v-21.3h-5.5
			c-0.7,0-1-0.4-1-1v-4.3c0-0.6,0.4-1,1-1h17.6C703.9,231.3,704.2,231.7,704.2,232.3L704.2,232.3z"/>
		<path class="st3" d="M731.1,258.7c0.5,0.6,0.2,1.3-0.6,1.3h-5.2c-0.5,0-0.9-0.2-1.3-0.6l-7-8.8h-2.5v8.4c0,0.7-0.4,1-1,1H709
			c-0.7,0-1-0.4-1-1v-26.6c0-0.7,0.4-1,1-1h10c5.5,0,9.8,4.4,9.8,9.8c0,3.4-2,6.6-5.1,8.2L731.1,258.7L731.1,258.7L731.1,258.7z
			 M714.5,244.8h4.5c1.8,0,3.3-1.6,3.3-3.7c0-2.1-1.5-3.7-3.3-3.7h-4.5V244.8L714.5,244.8z"/>
		<path class="st3" d="M751.8,254.7v4.3c0,0.6-0.4,1-1,1h-15.2c-0.7,0-1-0.4-1-1v-26.6c0-0.6,0.4-1,1-1h15c0.7,0,1,0.4,1,1v4.3
			c0,0.6-0.4,1-1,1h-9.4v4.8h8.4c0.7,0,1,0.4,1,1v4.1c0,0.6-0.4,1-1,1h-8.4v5.1h9.6C751.4,253.7,751.8,254,751.8,254.7L751.8,254.7z
			"/>
		<path class="st3" d="M754.9,252.2c0-0.7,0.4-1,1-1h4.4c0.6,0,0.9,0.3,1,1c0.3,1.4,1.5,2.2,3.9,2.2c2.6,0,3.5-1,3.5-2.2
			c0-1.6-2-2.4-4.5-3.2c-4-1.4-9-3-9-9.2c0-5.6,4.6-8.4,9.4-8.4s9.2,2.5,9.7,8.4c0,0.7-0.4,1-1,1h-4.4c-0.6,0-0.9-0.3-1-1
			c-0.3-1.5-1.4-2.2-3.2-2.2c-2,0-2.9,1-2.9,2.2c0,1.7,1.7,2.5,4,3.3c4,1.4,9.5,2.8,9.5,9c0,5.6-4.5,8.4-9.9,8.4
			S755.4,258,754.9,252.2L754.9,252.2z"/>
	</g>
</g>
<rect x="308.6" y="272.4" class="st4" width="374" height="51"/>
<text transform="matrix(1 0 0 1 312.0998 125.5694)" class="st3 st5 st6">Kerala Startup Mission</text>
</svg>
