<svg id="Layer_1" data-name="Layer 1" xmlns="http://www.w3.org/2000/svg" viewBox="0 0 726.72 382"><defs><style>.cls-1{fill:#67489d;}</style></defs><path class="cls-1" d="M223,139.77c-4.4,9.64-15.89,22-15.89,22s.15,2.41,0,22.41-8,33.51-8,33.51c-34.33.82-51.39-27.17-51.39-27.17C238.37,169.3,232.3,83.83,232.3,83.83c-16.65-7.42-34.14-6.58-34.14-6.58,1.82,10.92.84,16.09.84,16.09,8.26-.84,17.42,1.65,17.42,1.65C208.13,168.55,141,175.24,141,175.24c-4-9.36-3.21-20.6-3.21-20.6,21.4-2.94,38.52-15.78,49.48-34.23s13.38-51.1-9.36-75.17S123.6,20.1,99.53,31.87s-43.34,41.46-31,79.71S122,154.64,122,154.64c.73,13.84-2.63,19.81-2.63,19.81-71.86-9.18-75.5-79.13-75.5-79.13,5.16-1.91,17-2.1,17-2.1-.76-6.88.77-15.67.77-15.67-21.41-1-34.16,6.5-34.16,6.5,1.21,94,84.77,106.46,84.77,106.46a62.73,62.73,0,0,1-51.16,27.23c-7.56-12.79-8.58-32.56-8.43-34.59s.14-21.23.14-21.23c-12.5-12.93-16-22.09-16-22.09s-.29,16.43,0,44.77a92.75,92.75,0,0,0,14.3,48.26c59,4.87,78.69-40.88,78.69-40.88,29.63,50.93,79,41,79,41,13-18.26,14.57-42.6,14.41-48.21S223,139.77,223,139.77Zm-82.1-2.3s8.14-30.18,37.77-40.15C178.7,97.32,175.19,128.91,140.93,137.47Zm-2.87-96.89a53,53,0,0,1,23.45,10.54s-10.74,9.37-23.45,10.55Zm0,37.72s19.52-1.83,34.19-14.8c0,0,4.11,5.76,6.45,16.77a76.23,76.23,0,0,0-40.64,28.29Zm-56.94,19s26.53,6.6,38.05,40.15C119.17,137.47,88.14,132.56,81.12,97.32ZM122,108.56S109.59,88.65,81.12,80.27c0,0,0-7.34,6.9-16.77C88,63.5,98.92,76,122,78.17Zm0-46.89s-11.44-.52-23.59-10.74c0,0,8-8.26,23.59-10.35Z"/><path class="cls-1" d="M53.29,236.22a92.61,92.61,0,0,0,20.1-.65s52.11,56.14,113.18.46c0,0,7.78,2,20.06.24,0,0-27,40.65-73.63,40.32S64.15,252.67,53.29,236.22Z"/><path class="cls-1" d="M281.88,319.84c0-2.28-1.76-3.64-4.66-3.58h-8v7.39h8C280.12,323.65,281.88,322.23,281.88,319.84Z"/><path class="cls-1" d="M277.22,330.87h-8v8h8c3.64,0,5.91-1.52,5.91-4.13C283.13,332.34,280.86,330.82,277.22,330.87Z"/><path class="cls-1" d="M202.76,316.69a10.85,10.85,0,0,0-11,10.87,11,11,0,0,0,11,11,10.92,10.92,0,0,0,0-21.84Z"/><path class="cls-1" d="M348.16,316.69a10.85,10.85,0,0,0-11,10.87,11,11,0,0,0,11,11,10.92,10.92,0,0,0,0-21.84Z"/><path class="cls-1" d="M131,316.42h-7.55V328.1H131c4.2,0,6.64-2.06,6.64-5.92S135.17,316.42,131,316.42Z"/><path class="cls-1" d="M27.48,298.8v58.65H699.23V298.8Zm109.45,47.77L131.14,336h-7.72v10.54H113V308.49h17.89c10.56,0,16.58,4.89,16.58,13.36,0,5.76-2.5,10-7.1,12.28l8.3,12.44Zm65.72.44c-12.33,0-21.52-8.37-21.52-19.5s9.19-19.29,21.52-19.29,21.52,8.26,21.52,19.29S215,347,202.65,347Zm75.88-.44H258.88V308.49h18.91c9,0,14.77,3.75,14.77,9.62,0,4-2.67,7.17-6.88,8.25,5.06,1,8.18,4.73,8.18,9.62C293.86,342.5,287.9,346.57,278.53,346.57Zm69.52.44c-12.32,0-21.52-8.37-21.52-19.5s9.2-19.29,21.52-19.29,21.52,8.26,21.52,19.29S360.37,347,348.05,347Zm85.6-30.32H421.72v29.88H411.33V316.69H399.52v-8.2h34.13Zm44.13,29.88H467.39V308.49h10.39Zm55.61.44c-12,0-20.9-8.37-20.9-19.56,0-11,9.14-19.23,21.29-19.23a23.34,23.34,0,0,1,16.07,6.52l-6,6.9a13.74,13.74,0,0,0-9.88-5,10.76,10.76,0,1,0,0,21.51,15.06,15.06,0,0,0,9.88-4.45l6.08,6.24A24.27,24.27,0,0,1,533.39,347Zm65.88-.11a30.83,30.83,0,0,1-18.34-6.08l4-7.77c4.09,3.36,10.28,5.75,14.43,5.75,3.06,0,5-1.08,5-3.09,0-6.47-21-2.56-21-16,0-7.12,6.3-11.63,15.9-11.63a31.51,31.51,0,0,1,15.9,4.3l-3.92,7.87c-4.2-2.28-9.54-4.07-12.83-4.07-2.5,0-4.15.87-4.15,2.61,0,6.3,21,2.71,21,16.4C615.29,342.93,608.13,346.9,599.27,346.9Z"/><path class="cls-1" d="M276.54,89.73l0,40.74s.25,21.06,22.46,21.7h27.46s21,.58,22.08-22.08V89.73H336.6v38.5s.51,10.89-10.56,11.85H299.22s-10.11-.32-10.82-11.53V89.73Z"/><path class="cls-1" d="M553.39,89.73l0,40.74s.25,21.06,22.46,21.7h27.46s21,.58,22.08-22.08V89.73h-11.9v38.5s.51,10.89-10.56,11.85H576.07s-10.12-.32-10.82-11.53V89.73Z"/><path class="cls-1" d="M660.34,101.24l38.89.21V89.77l-40.74,0s-20.17-.34-20.81,18.92l0,24.34s-1.48,18.24,21.18,19.18h40.35v-12l-36.06.1s-12.78.86-13.5-7.66l0-5.61h49.12V114.89H649.74l0-5.57S649.14,101.85,660.34,101.24Z"/><path class="cls-1" d="M432.92,152.17l0-40.74s-.26-21.06-22.47-21.7H383s-21-.57-22.08,22.09v40.35h11.91v-38.5s-.52-10.88,10.56-11.84h26.82s10.11.32,10.81,11.52v38.82Z"/><path class="cls-1" d="M542.23,215.34c-.09-9-5.53-13.14-5.53-13.14,6.54-6.39,7.45-16.23,1.83-24.88s-15.6-8.15-15.6-8.15H489.82c-20.94.63-20.73,19-20.73,19v43.79H480.9l.14-24h40.9c8.72.57,8.09,8,8.09,8v16h12.2S542.33,224.34,542.23,215.34Zm-19.94-19c-3.51.07-41.18,0-41.18,0v-7.8s-.14-7.6,8.43-7.81h32.12s6.89-.28,8.3,6.19S525.81,196.23,522.29,196.3Z"/><path class="cls-1" d="M618.23,220v12H576.91s-21,.44-22.43-22.64V169.16h12v39.56s-.41,10.26,10.92,11.17Z"/><path class="cls-1" d="M698.72,208.49V192.57c-.5-22.45-21.78-23.41-21.78-23.41H630.6v62.77h45.83C701.43,229.05,698.72,208.49,698.72,208.49Zm-23.25,11.62h-33V181.28h33.72s10.3-.08,10.78,11.1v16.06S687.85,219.07,675.47,220.11Z"/><path class="cls-1" d="M360.64,175.9h12.13v36.64S374.4,231.8,352.09,232H338s-7.93.55-13.45-4.66c0,0-4,4.41-13.37,4.67H294.89s-18.18.26-18.49-19.13v-37h12.12v38.38s-.38,7.05,8,7.51h14.52s7.55-.1,7.55-8.06V175.9h12v36.82s-.85,8.16,7.37,9h15.15s7.49.2,7.49-8.16S360.64,175.9,360.64,175.9Z"/><rect class="cls-1" x="445.36" y="89.73" width="11.86" height="62.44"/><path class="cls-1" d="M548,148l-10.5-8.43a16.32,16.32,0,0,0,1.16-6V108.11A16.66,16.66,0,0,0,522,91.47H487.55a16.67,16.67,0,0,0-16.64,16.64v25.45a16.66,16.66,0,0,0,16.64,16.64H522a16.44,16.44,0,0,0,7.49-1.86l11.07,8.88Zm-60.45-6.92a7.5,7.5,0,0,1-7.49-7.49V108.11a7.5,7.5,0,0,1,7.49-7.49H522a7.51,7.51,0,0,1,7.5,7.49v25.45a7.51,7.51,0,0,1-7.5,7.49Z"/><path class="cls-1" d="M438.17,230.06H403.71a16.66,16.66,0,0,1-16.64-16.64V188a16.65,16.65,0,0,1,16.64-16.64h34.46A16.65,16.65,0,0,1,454.81,188v25.45A16.66,16.66,0,0,1,438.17,230.06Zm-34.46-49.58a7.51,7.51,0,0,0-7.5,7.49v25.45a7.51,7.51,0,0,0,7.5,7.49h34.46a7.5,7.5,0,0,0,7.5-7.49V188a7.5,7.5,0,0,0-7.5-7.49Z"/></svg>