<svg width="180" height="180" viewBox="0 0 180 180" fill="none" xmlns="http://www.w3.org/2000/svg">
<path fill-rule="evenodd" clip-rule="evenodd" d="M90.0026 180C85.3242 179.994 80.6532 179.628 76.0308 178.906C57.2119 175.952 39.816 167.102 26.3479 153.63C12.8797 140.159 4.03425 122.761 1.08506 103.941C-1.86412 85.1218 1.23511 65.8521 9.93655 48.9065C18.638 31.9609 32.4927 18.2137 49.5058 9.64437C66.5161 1.07111 85.8055 -1.89217 104.605 1.1799L114.126 2.74671L84.7551 55.397C86.4888 55.1346 88.2398 55.0013 89.9933 54.9984C90.7721 54.9984 91.5509 54.9984 92.3204 55.0818L127.106 6.83524L138.148 14.762L106.264 59.0127C107.383 59.5994 108.47 60.2462 109.519 60.9504L148.838 21.5762L158.424 31.1625L119.059 70.5274C119.768 71.5781 120.418 72.6676 121.006 73.7908L165.248 41.9076L173.175 52.9031L124.909 87.6881C124.909 88.4576 124.983 89.2364 124.983 90.0059C124.984 91.7623 124.854 93.5163 124.594 95.2533L177.236 65.8826L178.803 75.404C181.901 94.2021 178.949 113.499 170.373 130.511C161.797 147.523 148.039 161.373 131.084 170.061C118.366 176.57 104.288 179.972 90.0026 179.991V180ZM90.0026 13.5753C78.0667 13.5938 66.2993 16.3935 55.6341 21.7524C41.1887 29.0362 29.4268 40.7152 22.041 55.1085C14.6552 69.5018 12.0265 85.8672 14.5331 101.849C17.0397 117.832 24.5523 132.607 35.9899 144.048C47.4274 155.489 62.2001 163.007 78.1818 165.519C94.1657 168.016 110.53 165.387 124.927 158.009C137.82 151.393 148.566 141.249 155.913 128.759C163.261 116.269 166.906 101.948 166.426 87.4656L106.246 121.045C99.5312 124.576 91.851 125.829 84.3622 124.617C76.8734 123.404 69.9814 119.791 64.7242 114.321C59.467 108.852 56.1294 101.823 55.2139 94.2917C54.2985 86.7609 55.8548 79.1366 59.6485 72.567L92.5522 13.5846C91.7085 13.5846 90.8648 13.5753 90.0026 13.5753ZM71.2747 79.5852C68.5686 84.5081 67.9259 90.3033 69.4874 95.6994C71.0489 101.096 74.6871 105.652 79.604 108.369C84.5208 111.086 90.3147 111.742 95.7145 110.193C101.114 108.643 105.679 105.015 108.407 100.105C111.135 95.1941 111.804 89.4019 110.267 83.9987C108.73 78.5956 105.112 74.0228 100.207 71.2837C95.3029 68.5445 89.512 67.8626 84.1053 69.3877C78.6986 70.9127 74.1176 74.52 71.3674 79.4183L71.2747 79.5852Z" fill="white"/>
</svg>
